<svg xmlns="http://www.w3.org/2000/svg" viewBox="0 0 50 50"><defs><style>.cls-1{fill:#232f3e;}</style></defs><title>AWS-CloudFormation_Template_dark-bg</title><g id="Reference"><path class="cls-1" d="M43.75,48.5H6.25a1,1,0,0,1-1-1V2.5a1,1,0,0,1,1-1h37.5a1,1,0,0,1,1,1v45A1,1,0,0,1,43.75,48.5Zm-36.5-2h35.5V3.5H7.25Z"/><path class="cls-1" d="M19.38,15.69H12.81a1,1,0,0,1-1-1V8.12a1,1,0,0,1,1-1h6.57a1,1,0,0,1,1,1v6.57A1,1,0,0,1,19.38,15.69Zm-5.57-2h4.57V9.12H13.81Z"/><path class="cls-1" d="M19.38,28.81H12.81a1,1,0,0,1-1-1V21.25a1,1,0,0,1,1-1h6.57a1,1,0,0,1,1,1v6.56A1,1,0,0,1,19.38,28.81Zm-5.57-2h4.57V22.25H13.81Z"/><path class="cls-1" d="M19.38,41.94H12.81a1,1,0,0,1-1-1V34.38a1,1,0,0,1,1-1h6.57a1,1,0,0,1,1,1v6.56A1,1,0,0,1,19.38,41.94Zm-5.57-2h4.57V35.38H13.81Z"/></g></svg>