<svg xmlns="http://www.w3.org/2000/svg" viewBox="0 0 50 50"><defs><style>.cls-1{fill:#232f3e;}</style></defs><title>AWS-Systems-Manager_Run-Command_dark-bg</title><g id="Reference"><path class="cls-1" d="M39.38,41.47h-26a2.49,2.49,0,0,1-2.43-3l5.93-28a2.5,2.5,0,0,1,2.44-2h26a2.49,2.49,0,0,1,2.43,3l-5.93,28A2.5,2.5,0,0,1,39.38,41.47ZM19.29,10.53a.49.49,0,0,0-.48.39l-5.93,28a.47.47,0,0,0,.1.41.45.45,0,0,0,.37.18h26a.49.49,0,0,0,.47-.39l5.93-28a.48.48,0,0,0-.09-.41.49.49,0,0,0-.38-.18Z"/><path class="cls-1" d="M37.61,29.28H18.67l2.38-9.5H40Zm-16.37-2H36.05l1.37-5.5H22.61Z"/></g></svg>