<svg xmlns="http://www.w3.org/2000/svg" viewBox="0 0 50 50"><defs><style>.cls-1{fill:#f90;}</style></defs><title>Amazon-EC2_Auto-Scaling_dark-bg</title><g id="Working"><path class="cls-1" d="M30,9.83l-5-5-5,5L18.56,8.42l5.73-5.73a1,1,0,0,1,1.42,0l5.72,5.73Z"/><path class="cls-1" d="M25,47.6a1,1,0,0,1-.71-.29l-5.73-5.73L20,40.17l5,5,5-5,1.41,1.41-5.72,5.73A1,1,0,0,1,25,47.6Z"/><path class="cls-1" d="M30.61,32.3H19.39a1.69,1.69,0,0,1-1.69-1.69V19.39a1.69,1.69,0,0,1,1.69-1.69H30.61a1.69,1.69,0,0,1,1.69,1.69V30.61A1.69,1.69,0,0,1,30.61,32.3Zm-10.91-2H30.3V19.7H19.7Z"/><path class="cls-1" d="M8.22,31.5,6.8,30.08l5-5-5-5,1.42-1.41,5.72,5.72a1,1,0,0,1,0,1.42Z"/><path class="cls-1" d="M41.78,31.5l-5.73-5.73a1,1,0,0,1,0-1.42l5.73-5.72L43.19,20l-5,5,5,5Z"/></g></svg>