<svg xmlns="http://www.w3.org/2000/svg" viewBox="0 0 50 50"><defs><style>.cls-1{fill:#f90;}</style></defs><title>Amazon-Elastic-Container-Service_Container3_dark-bg</title><g id="Working"><path class="cls-1" d="M47.5,40.06H2.5a1,1,0,0,1-1-1V10.94a1,1,0,0,1,1-1h45a1,1,0,0,1,1,1V39.06A1,1,0,0,1,47.5,40.06Zm-44-2h43V11.94H3.5Z"/><path class="cls-1" d="M33.44,26.94H16.56a1,1,0,0,1-1-1V15.62a1,1,0,0,1,1-1H33.44a1,1,0,0,1,1,1V25.94A1,1,0,0,1,33.44,26.94Zm-15.88-2H32.44V16.62H17.56Z"/><path class="cls-1" d="M32.5,35.38h-15a1,1,0,0,1-1-1V29.69a1,1,0,0,1,1-1h15a1,1,0,0,1,1,1v4.69A1,1,0,0,1,32.5,35.38Zm-14-2h13V30.69h-13Z"/></g></svg>