<svg xmlns="http://www.w3.org/2000/svg" viewBox="0 0 50 50"><defs><style>.cls-1{fill:#f90;}</style></defs><title>Amazon-Elastic-Container-Service_Container2_dark-bg</title><g id="Working"><path class="cls-1" d="M47.5,39.56H2.5a1,1,0,0,1-1-1V10.44a1,1,0,0,1,1-1h45a1,1,0,0,1,1,1V38.56A1,1,0,0,1,47.5,39.56Zm-44-2h43V11.44H3.5Z"/><path class="cls-1" d="M30.87,32.06H19.13a1.69,1.69,0,0,1-1.69-1.69V18.63a1.69,1.69,0,0,1,1.69-1.69H30.87a1.69,1.69,0,0,1,1.69,1.69V30.37A1.69,1.69,0,0,1,30.87,32.06Zm-11.43-2H30.56V18.94H19.44Z"/></g></svg>