<svg xmlns="http://www.w3.org/2000/svg" viewBox="0 0 50 50"><defs><style>.cls-1{fill:#232f3e;}</style></defs><title>IoT_Thermostat_dark-bg</title><g id="Reference"><path class="cls-1" d="M40.81,43.81H9.19a3,3,0,0,1-3-3V9.2a3,3,0,0,1,3-3H40.81a3,3,0,0,1,3,3V40.82A3,3,0,0,1,40.81,43.81ZM9.19,8.21a1,1,0,0,0-1,1V40.82a1,1,0,0,0,1,1H40.81a1,1,0,0,0,1-1V9.2a1,1,0,0,0-1-1Z"/><path class="cls-1" d="M25,39.59A14.59,14.59,0,1,1,39.59,25,14.6,14.6,0,0,1,25,39.59Zm0-27.18A12.59,12.59,0,1,0,37.59,25,12.61,12.61,0,0,0,25,12.41Z"/><path class="cls-1" d="M25,35.84a3.34,3.34,0,1,1,3.34-3.34A3.35,3.35,0,0,1,25,35.84Zm0-4.68a1.34,1.34,0,1,0,1.34,1.34A1.34,1.34,0,0,0,25,31.16Z"/></g></svg>