<svg xmlns="http://www.w3.org/2000/svg" viewBox="0 0 50 50"><defs><style>.cls-1{fill:#232f3e;}</style></defs><title>IoT_Windfarm_dark-bg</title><g id="Reference"><path class="cls-1" d="M40.68,43.81H9.32a3.13,3.13,0,0,1-3.13-3.13V9.34A3.14,3.14,0,0,1,9.32,6.2H40.68a3.14,3.14,0,0,1,3.13,3.14V40.68A3.13,3.13,0,0,1,40.68,43.81ZM9.32,8.2A1.14,1.14,0,0,0,8.19,9.34V40.68a1.14,1.14,0,0,0,1.13,1.13H40.68a1.14,1.14,0,0,0,1.13-1.13V9.34A1.14,1.14,0,0,0,40.68,8.2Z"/><path class="cls-1" d="M26.87,26.47a3.33,3.33,0,0,1-2.24-.87,3.34,3.34,0,0,1,2.09-5.81,3.34,3.34,0,0,1,2.4.86A3.34,3.34,0,0,1,27,26.46Zm0-4.69h-.07a1.37,1.37,0,0,0-.93.44,1.38,1.38,0,0,0-.35,1,1.37,1.37,0,0,0,.44.93,1.42,1.42,0,0,0,1,.35,1.37,1.37,0,0,0,.93-.44,1.38,1.38,0,0,0,.35-1,1.37,1.37,0,0,0-.44-.93A1.32,1.32,0,0,0,26.88,21.78Z"/></g></svg>