<svg xmlns="http://www.w3.org/2000/svg" viewBox="0 0 50 50"><defs><style>.cls-1{fill:#232f3e;}</style></defs><title>Amazon-SageMaker_Notebook_dark-bg</title><g id="Working"><path class="cls-1" d="M8.75,2.31V7.73H5.58v2H8.75v3.43H5.58v2H8.75v3.42H5.58v2H8.75V24H5.58v2H8.75v3.42H5.58v2H8.75v3.42H5.58v2H8.75v3.43H5.58v2H8.75v5.42H45.42V2.31ZM43.42,45.69H10.75V42.27h3.17v-2H10.75V36.84h3.17v-2H10.75V31.42h3.17v-2H10.75V26h3.17V24H10.75V20.58h3.17v-2H10.75V15.16h3.17v-2H10.75V9.73h3.17v-2H10.75V4.31H43.42Z"/></g></svg>