<svg id="Outline" xmlns="http://www.w3.org/2000/svg" viewBox="0 0 512 512"><title>antenna-tower-signal-sign-symbol</title><path d="M368.379,498.432l15.242-4.864-30.7-96.189-15.242,4.865,13.1,41.036-81.024-57.94,50.913-36.407,12.791,40.077,15.242-4.864L274.411,151.375a24,24,0,1,0-36.822,0L128.379,493.568l15.242,4.864L152.057,472H248v24h16V472h95.943ZM264,369.785V344h36.057ZM226.247,239.539c4.917,5.447,11.47,12.7,18.815,20.826l-39.2,43.044Zm80.13,64.62c-11.288-12.386-25.389-27.932-39.709-43.755l19.064-20.933ZM264,232H270.9L264,239.57Zm-16,7.758q-3.548-3.927-7.006-7.758H248ZM248,328H205.108L248,280.9Zm16-46.708S305.321,326.721,306.5,328H264ZM264,216V171.379L278.241,216Zm-16,0H233.759L248,171.379Zm0,128v25.785L211.943,344Zm-56.666,4.933,50.913,36.407-81.024,57.94ZM170.941,456,248,400.9V456ZM264,456V400.9L341.059,456Zm32-320a40,40,0,1,0-69.817,26.665l-11.922,10.67a56,56,0,1,1,79.074,4.4l-10.67-11.922A40.067,40.067,0,0,0,296,136Zm12.805,70.4-9.61-12.793a72,72,0,1,0-86.39,0L203.2,206.4a88,88,0,1,1,105.61,0ZM172.355,74.186,159.5,64.665a120.009,120.009,0,1,1,156.51,175.276l-8.012-13.85a104.011,104.011,0,1,0-135.639-151.9ZM136,136a120.234,120.234,0,0,1,14.057-56.4l14.117,7.53a104.083,104.083,0,0,0,39.831,138.964l-8.011,13.85A120.446,120.446,0,0,1,136,136Z"/></svg>