<svg id="Outline" xmlns="http://www.w3.org/2000/svg" viewBox="0 0 512 512"><title>cloud computing-network-storage-data-computer</title><path d="M280,440h-8V328a24.027,24.027,0,0,0-24-24H200v16h48a8.009,8.009,0,0,1,8,8V440H200a8,8,0,0,0-5.657,2.343L188.687,448H147.313l-5.656-5.657A8,8,0,0,0,136,440H80V328a8.009,8.009,0,0,1,8-8h48V304H88a24.027,24.027,0,0,0-24,24V440H56a8,8,0,0,0-8,8v24a24.027,24.027,0,0,0,24,24H264a24.027,24.027,0,0,0,24-24V448A8,8,0,0,0,280,440Zm-8,32a8.009,8.009,0,0,1-8,8H72a8.009,8.009,0,0,1-8-8V456h68.687l5.656,5.657A8,8,0,0,0,144,464h48a8,8,0,0,0,5.657-2.343L203.313,456H272ZM112,352H96V336h16ZM96,368h16v56H96Zm336-40V472a24.028,24.028,0,0,1-24,24H344a24.028,24.028,0,0,1-24-24V328a24.028,24.028,0,0,1,24-24v16a8.009,8.009,0,0,0-8,8V472a8.009,8.009,0,0,0,8,8h64a8.009,8.009,0,0,0,8-8V328a8.009,8.009,0,0,0-8-8V304A24.028,24.028,0,0,1,432,328ZM368,448h16v16H368ZM48,200a64.1,64.1,0,0,1,56.92-63.611,84.006,84.006,0,0,1,14.585-61.026l13.039,9.274A68.031,68.031,0,0,0,122.4,141.9a8,8,0,0,1-7.718,10.1H112a48,48,0,0,0,0,96h16v16H112A64.072,64.072,0,0,1,48,200Zm416,0a64.281,64.281,0,0,1-54.867,63.353l-2.266-15.839A48,48,0,0,0,400,152h-6a8,8,0,0,1-7.452-10.91A80.016,80.016,0,0,0,243.824,70.127a8,8,0,0,1-11.975,1.917,67.973,67.973,0,0,0-90.374,2.363l-10.95-11.666a83.971,83.971,0,0,1,104.6-8.262,96.035,96.035,0,0,1,169.8,81.709A64.083,64.083,0,0,1,464,200ZM208,248H336v16H208ZM312,64a47.851,47.851,0,0,0-16.478,2.9L290.03,51.873A63.8,63.8,0,0,1,312,48Zm-47.513,41.132-15.839-2.264a64.194,64.194,0,0,1,26.775-43.392L284.577,72.6A48.14,48.14,0,0,0,264.487,105.132ZM160,288V272h-8a8,8,0,0,1-6.656-12.438l16-24a8,8,0,0,1,13.312,0l16,24A8,8,0,0,1,184,272h-8v16h8a8,8,0,0,1,6.656,12.438l-16,24a8,8,0,0,1-13.312,0l-16-24A8,8,0,0,1,152,288Zm208,0V272h-8a8,8,0,0,1-6.656-12.438l16-24a8,8,0,0,1,13.312,0l16,24A8,8,0,0,1,392,272h-8v16h8a8,8,0,0,1,6.656,12.438l-16,24a8,8,0,0,1-13.312,0l-16-24A8,8,0,0,1,360,288Z"/></svg>