<svg id="Outline" xmlns="http://www.w3.org/2000/svg" viewBox="0 0 512 512"><title>cloud server-network-storage-data-computer</title><path d="M496,220a84.1,84.1,0,0,1-84,84H368V288h44a68.005,68.005,0,0,0,10.431-135.2,8,8,0,0,1-6.756-8.531c.216-2.756.325-5.537.325-8.266A103.994,103.994,0,0,0,232.476,68.988a8,8,0,0,1-10.7,1.4,80.028,80.028,0,0,0-91.78.153l-9.213-13.082a96.056,96.056,0,0,1,104.17-4.051A119.993,119.993,0,0,1,432,136c0,.8-.008,1.6-.024,2.4A84.046,84.046,0,0,1,496,220ZM51.919,268.085A68.015,68.015,0,0,1,89.647,152.778a8,8,0,0,0,6.754-8.7c-.266-2.67-.4-5.388-.4-8.077a79.675,79.675,0,0,1,21.817-54.906L106.183,70.11A95.619,95.619,0,0,0,80,136q0,1.192.029,2.39A84.01,84.01,0,0,0,100,304h44V288H100A67.586,67.586,0,0,1,51.919,268.085ZM352,160V408H336V390.624A23.889,23.889,0,0,1,328,392H184a23.889,23.889,0,0,1-8-1.376V432a8.009,8.009,0,0,0,8,8H328a8.009,8.009,0,0,0,8-8v-8h16v40a24.027,24.027,0,0,1-24,24H184a24.027,24.027,0,0,1-24-24V200h16v40a8.009,8.009,0,0,0,8,8H328a8.009,8.009,0,0,0,8-8V160a8.009,8.009,0,0,0-8-8H184a8.009,8.009,0,0,0-8,8v24H160V160a24.028,24.028,0,0,1,24-24H328A24.028,24.028,0,0,1,352,160ZM176,454.624V464a8.009,8.009,0,0,0,8,8H328a8.009,8.009,0,0,0,8-8v-9.376A23.889,23.889,0,0,1,328,456H184A23.889,23.889,0,0,1,176,454.624Zm160-128A23.889,23.889,0,0,1,328,328H184a23.889,23.889,0,0,1-8-1.376V368a8.009,8.009,0,0,0,8,8H328a8.009,8.009,0,0,0,8-8Zm0-64A23.889,23.889,0,0,1,328,264H184a23.889,23.889,0,0,1-8-1.376V304a8.009,8.009,0,0,0,8,8H328a8.009,8.009,0,0,0,8-8ZM192,296h16V280H192Zm32,0h96V280H224Zm-32,64h16V344H192Zm32,0h96V344H224Zm-16,64V408H192v16Zm112,0V408H224v16ZM312,48a88.6,88.6,0,0,0-17.591,1.76l3.182,15.68A72.57,72.57,0,0,1,312,64ZM283.2,69.987,276.8,55.326A88.227,88.227,0,0,0,232.8,97.592l14.392,6.991A72.213,72.213,0,0,1,283.2,69.987ZM208,168H192v16h16Zm-16,64h16V200H192Z"/></svg>