<svg id="Outline" xmlns="http://www.w3.org/2000/svg" viewBox="0 0 512 512"><title>connection-connecting-connect-computer-linking</title><path d="M488,184h-8V160H464v24H384a8,8,0,0,0-5.657,2.343L372.687,192H331.313l-5.656-5.657A8,8,0,0,0,320,184H240V40a8.009,8.009,0,0,1,8-8H456a8.009,8.009,0,0,1,8,8V144h16V40a24.027,24.027,0,0,0-24-24H248a24.027,24.027,0,0,0-24,24V184h-8a8,8,0,0,0-8,8v24a24.028,24.028,0,0,0,24,24H472a24.028,24.028,0,0,0,24-24V192A8,8,0,0,0,488,184Zm-8,32a8.009,8.009,0,0,1-8,8H232a8.009,8.009,0,0,1-8-8V200h92.687l5.656,5.657A8,8,0,0,0,328,208h48a8,8,0,0,0,5.657-2.343L387.313,200H480ZM272,64H256V48h16ZM256,80h16v56H256Zm40,360h-8V296a24.027,24.027,0,0,0-24-24H56a24.027,24.027,0,0,0-24,24v16H48V296a8.009,8.009,0,0,1,8-8H264a8.009,8.009,0,0,1,8,8V440H192a8,8,0,0,0-5.657,2.343L180.687,448H139.313l-5.656-5.657A8,8,0,0,0,128,440H48V328H32V440H24a8,8,0,0,0-8,8v24a24.028,24.028,0,0,0,24,24H280a24.028,24.028,0,0,0,24-24V448A8,8,0,0,0,296,440Zm-8,32a8.009,8.009,0,0,1-8,8H40a8.009,8.009,0,0,1-8-8V456h92.687l5.656,5.657A8,8,0,0,0,136,464h48a8,8,0,0,0,5.657-2.343L195.313,456H288ZM80,320H64V304H80ZM64,336H80v56H64Zm32-96h16v16H96Zm16-80H96V144h16Zm0-32H96V112h16Zm96,0H192V112h16Zm-32,0H160V112h16Zm-32,0H128V112h16Zm-40,96a24,24,0,1,0-24-24A24.027,24.027,0,0,0,104,224Zm0-32a8,8,0,1,1-8,8A8.009,8.009,0,0,1,104,192Zm312,80H400V256h16Zm-16,80h16v16H400Zm0,32h16v16H400Zm-96,0h16v16H304Zm32,0h16v16H336Zm32,0h16v16H368Zm40-96a24,24,0,1,0,24,24A24.027,24.027,0,0,0,408,288Zm0,32a8,8,0,1,1,8-8A8.009,8.009,0,0,1,408,320Z"/></svg>