<svg id="Outline" xmlns="http://www.w3.org/2000/svg" viewBox="0 0 512 512"><title>data center-server-database-data management-backup</title><path d="M496,72V289H480V278.624A23.889,23.889,0,0,1,472,280H360V264H472a8.009,8.009,0,0,0,8-8V214.624A23.889,23.889,0,0,1,472,216H360V200H472a8.009,8.009,0,0,0,8-8V150.624A23.889,23.889,0,0,1,472,152H360V136H472a8.009,8.009,0,0,0,8-8V72a8.009,8.009,0,0,0-8-8H360V48H472A24.027,24.027,0,0,1,496,72ZM376,168H360v16h16Zm16,0v16h72V168Zm-16,64H360v16h16Zm16,0v16h72V232Zm88,74v14a8.009,8.009,0,0,1-8,8H360v16H472a23.889,23.889,0,0,0,8-1.376V352a8.009,8.009,0,0,1-8,8H360v16H472a24.027,24.027,0,0,0,24-24V304H480ZM376,296H360v16h16Zm16,0v16h72V296ZM32,72a8.009,8.009,0,0,1,8-8H152V48H40A24.027,24.027,0,0,0,16,72V89H32ZM152,360H40a8.009,8.009,0,0,1-8-8v-9.376A23.889,23.889,0,0,0,40,344H152V328H40a8.009,8.009,0,0,1-8-8V278.624A23.889,23.889,0,0,0,40,280H152V264H40a8.009,8.009,0,0,1-8-8V214.624A23.889,23.889,0,0,0,40,216H152V200H40a8.009,8.009,0,0,1-8-8V150.624A23.889,23.889,0,0,0,40,152H152V136H40a8.009,8.009,0,0,1-8-8V103H16V352a24.028,24.028,0,0,0,24,24H152ZM64,184V168H48v16Zm88,0V168H80v16ZM64,248V232H48v16Zm88,0V232H80v16ZM64,312V296H48v16Zm88,0V296H80v16Zm16,72V208h16v16a8.009,8.009,0,0,0,8,8H320a8.009,8.009,0,0,0,8-8V182.624A23.889,23.889,0,0,1,320,184H192a23.889,23.889,0,0,1-8-1.376V193H168V40a24.027,24.027,0,0,1,24-24H320a24.027,24.027,0,0,1,24,24V384a24.027,24.027,0,0,1-24,24H192A24.027,24.027,0,0,1,168,384ZM184,96a8.009,8.009,0,0,0,8,8H320a8.009,8.009,0,0,0,8-8V40a8.009,8.009,0,0,0-8-8H192a8.009,8.009,0,0,0-8,8Zm144,64V118.624A23.889,23.889,0,0,1,320,120H192a23.889,23.889,0,0,1-8-1.376V160a8.009,8.009,0,0,0,8,8H320A8.009,8.009,0,0,0,328,160Zm0,224v-9.376A23.889,23.889,0,0,1,320,376H192a23.889,23.889,0,0,1-8-1.376V384a8.009,8.009,0,0,0,8,8H320A8.009,8.009,0,0,0,328,384ZM184,288a8.009,8.009,0,0,0,8,8H320a8.009,8.009,0,0,0,8-8V246.624A23.889,23.889,0,0,1,320,248H192a23.889,23.889,0,0,1-8-1.376Zm0,64a8.009,8.009,0,0,0,8,8H320a8.009,8.009,0,0,0,8-8V310.624A23.889,23.889,0,0,1,320,312H192a23.889,23.889,0,0,1-8-1.376Zm16-200h16V136H200Zm32,0h80V136H232Zm-32,48v16h16V200Zm32,0v16h80V200Zm-16,64H200v16h16Zm96,0H232v16h80Zm-96,64H200v16h16Zm96,0H232v16h80Zm96,64h16v80a8,8,0,0,1-8,8H278.624a24,24,0,0,1-45.248,0H96a8,8,0,0,1-8-8V392h16v72H233.376A24.119,24.119,0,0,1,248,449.376V424h16v25.376A24.119,24.119,0,0,1,278.624,464H408ZM264,472a8,8,0,1,0-8,8A8.009,8.009,0,0,0,264,472Z"/></svg>