<svg id="Outline" xmlns="http://www.w3.org/2000/svg" viewBox="0 0 512 512"><title>database-hard disk-server-storage-hard drive</title><path d="M336,16H176A80.091,80.091,0,0,0,96,96v64h16V143.945A79.928,79.928,0,0,0,176,176H336a79.928,79.928,0,0,0,64-32.055V200a64.072,64.072,0,0,1-64,64H176a64.072,64.072,0,0,1-64-64V176H96V416a80.091,80.091,0,0,0,80,80H336a80.091,80.091,0,0,0,80-80H400a64.072,64.072,0,0,1-64,64H176a64.072,64.072,0,0,1-64-64V351.945A79.928,79.928,0,0,0,176,384H336a79.928,79.928,0,0,0,64-32.055V400h16V96A80.091,80.091,0,0,0,336,16Zm64,288a64.072,64.072,0,0,1-64,64H176a64.072,64.072,0,0,1-64-64V247.945A79.928,79.928,0,0,0,176,280H336a79.928,79.928,0,0,0,64-32.055ZM336,160H176a64,64,0,0,1,0-128H336a64,64,0,0,1,0,128ZM166.4,48.965l3.2,15.678A32.1,32.1,0,0,0,144,96H128A48.156,48.156,0,0,1,166.4,48.965ZM264,208v16H248V208Zm-32,0v16H216V208Zm-32,0v16H184V208Zm128,0v16H312V208Zm-32,0v16H280V208ZM248,320h16v16H248Zm-32,0h16v16H216Zm-32,0h16v16H184Zm128,0h16v16H312Zm-32,0h16v16H280ZM248,432V416h16v16Zm-32,0V416h16v16Zm-32,0V416h16v16Zm128,0V416h16v16Zm-32,0V416h16v16Z"/></svg>