<svg id="Outline" xmlns="http://www.w3.org/2000/svg" viewBox="0 0 512 512"><title>data structure-tree-database-data management-storage</title><path d="M176,96V24a8,8,0,0,1,8-8h32V32H192V88H320V32H232V16h96a8,8,0,0,1,8,8V96a8,8,0,0,1-8,8H184A8,8,0,0,1,176,96ZM96,168H248v32h16V168H416v32h16V160a8,8,0,0,0-8-8H264V120H248v32H88a8,8,0,0,0-8,8v40H96ZM432,392V320H416v24H88a8,8,0,0,0-8,8v40H96V360H248v32h16V360H416v32ZM24,304H152a8,8,0,0,0,8-8V224a8,8,0,0,0-8-8H24a8,8,0,0,0-8,8v19H32V232H144v56H32V256H16v40A8,8,0,0,0,24,304Zm304-80v72a8,8,0,0,1-8,8H192a8,8,0,0,1-8-8V224a8,8,0,0,1,8-8H320A8,8,0,0,1,328,224Zm-16,8H200v56H312Zm184-8v72a8,8,0,0,1-8,8H360a8,8,0,0,1-8-8V224a8,8,0,0,1,8-8H488A8,8,0,0,1,496,224Zm-16,8H368v56H480ZM160,416v72a8,8,0,0,1-8,8H24a8,8,0,0,1-8-8V416a8,8,0,0,1,8-8H152A8,8,0,0,1,160,416Zm-16,8H32v56H144Zm184-8v72a8,8,0,0,1-8,8H192a8,8,0,0,1-8-8V416a8,8,0,0,1,8-8H320A8,8,0,0,1,328,416Zm-16,8H200v56H312Zm176-16H360a8,8,0,0,0-8,8v72a8,8,0,0,0,8,8H488a8,8,0,0,0,8-8V462H480v18H368V424H480v20h16V416A8,8,0,0,0,488,408Z"/></svg>