<svg id="Outline" xmlns="http://www.w3.org/2000/svg" viewBox="0 0 512 512"><title>security-protect-database-server-protection</title><path d="M477.071,352.557l15.018,5.517A64.239,64.239,0,0,1,432,400H304V384H432A48.185,48.185,0,0,0,477.071,352.557ZM496,80V336H480V314.265A63.849,63.849,0,0,1,432,336H320V320H432a48.053,48.053,0,0,0,48-48V250.265A63.849,63.849,0,0,1,432,272H320V256H432a48.053,48.053,0,0,0,48-48V186.265A63.849,63.849,0,0,1,432,208H320V192H432a48.053,48.053,0,0,0,48-48V122.265A63.849,63.849,0,0,1,432,144H304a63.849,63.849,0,0,1-48-21.735V168H240V80a63.994,63.994,0,0,1,64-64H432A64.072,64.072,0,0,1,496,80Zm-16,0a48.053,48.053,0,0,0-48-48H304a48,48,0,0,0,0,96H432A48.053,48.053,0,0,0,480,80ZM272,80a31.852,31.852,0,0,0,1.831,10.674l15.08-5.348A16,16,0,0,1,304,64V48A32.036,32.036,0,0,0,272,80Zm88,80v16h16V160Zm32,0v16h16V160Zm-64,0v16h16V160Zm32,64v16h16V224Zm32,0v16h16V224Zm-64,0v16h16V224Zm32,64v16h16V288Zm32,0v16h16V288Zm-64,0v16h16V288Zm32,64v16h16V352Zm32,0v16h16V352Zm-64,0v16h16V352Zm-24-45.76V200a8,8,0,0,0-8-8,242.794,242.794,0,0,1-128.816-36.944l-2.945-1.84a8,8,0,0,0-8.478,0l-2.946,1.84A242.788,242.788,0,0,1,24,192a8,8,0,0,0-8,8v32H32V207.877a258.724,258.724,0,0,0,128-38.448,258.724,258.724,0,0,0,128,38.448V306.24A181.461,181.461,0,0,1,160,479.646,181.461,181.461,0,0,1,32,306.24V248H16v58.24A197.457,197.457,0,0,0,157.743,495.675a8,8,0,0,0,4.514,0A197.457,197.457,0,0,0,304,306.24ZM80.979,405.366A164.256,164.256,0,0,1,48,306.24V230.19a8,8,0,0,1,7.1-7.949,273.407,273.407,0,0,0,101.056-32.068,8,8,0,0,1,7.691,0A273.429,273.429,0,0,0,264.9,222.241a8,8,0,0,1,7.1,7.949v76.05A165.475,165.475,0,0,1,162.706,461.882a7.993,7.993,0,0,1-5.412,0A164.657,164.657,0,0,1,80.979,405.366ZM64,306.24a149.491,149.491,0,0,0,96,139.583A149.491,149.491,0,0,0,256,306.24V237.246a289.089,289.089,0,0,1-96-30.972,289.051,289.051,0,0,1-96,30.972ZM168,224H152v16h16Zm0,184H152v16h16ZM96,248H80v16H96Zm144,0H224v16h16ZM96,312H80v16H96Zm144,0H224v16h16ZM120,376H104v16h16Zm104,0H208v16h16Zm0-320H208V72h16Zm-32,0H176V72h16Zm-32,0H144V72h16Zm0,32H144v16h16Zm0,32H144v16h16ZM296,464h16V448H296Zm-32,0h16V448H264Zm64,0h16V448H328Zm32,0h16V448H360Zm0-32h16V416H360Z"/></svg>