<svg id="Outline" xmlns="http://www.w3.org/2000/svg" viewBox="0 0 512 512"><title>data synchronization-connect-connecting-computer-synchronize</title><path d="M432,16H320a64.072,64.072,0,0,0-64,64v72h16V122.264A63.85,63.85,0,0,0,320,144H432a63.85,63.85,0,0,0,48-21.736V144a48.055,48.055,0,0,1-48,48H400v16h32a63.85,63.85,0,0,0,48-21.736V208a48.055,48.055,0,0,1-48,48H400v16h32a63.85,63.85,0,0,0,48-21.736V272a48.055,48.055,0,0,1-48,48H400v16h32a64.072,64.072,0,0,0,64-64V80A64.072,64.072,0,0,0,432,16Zm0,112H320a48,48,0,0,1,0-96H432a48,48,0,0,1,0,96ZM320,48V64a16,16,0,0,0-15.089,21.326l-15.08,5.348A32,32,0,0,1,320,48Zm48,124.305A31.793,31.793,0,0,0,352,168v-8H336v8H48a32.036,32.036,0,0,0-32,32v24H32V200a16.019,16.019,0,0,1,16-16H352a16.019,16.019,0,0,1,16,16V376H32V240H16V408a32.036,32.036,0,0,0,32,32H157.394l-11.429,40H128v16H272V480H254.035l-11.429-40H312V424H48a16.019,16.019,0,0,1-16-16V392H368v16a16.019,16.019,0,0,1-16,16H328v16h24a32.036,32.036,0,0,0,32-32V200a31.923,31.923,0,0,0-10.868-24H384V160H368ZM225.966,440l11.428,40H162.606l11.428-40ZM416,160v16H400V160Zm0,64v16H400V224Zm0,64v16H400V288ZM211.4,223.148l-2.944-8.378,15.094-5.305,9.54,27.146a8,8,0,0,1-12.346,9.054,48.013,48.013,0,0,0-70.386,62.349l-13.872,7.972A63.994,63.994,0,0,1,211.4,223.148ZM175.323,345.876l1.279,2.7-14.459,6.852L151.23,332.4a8,8,0,0,1,12.029-9.826,48.012,48.012,0,0,0,69.888-63.2l13.706-8.256a63.985,63.985,0,0,1-71.53,94.756ZM64,216H48V200H64ZM48,232H64v80H48ZM240,88H224V72h16Zm-32,0H192V72h16Zm-32,0H160V72h16Zm0,32H160V104h16Zm0,32H160V136h16ZM400,408h16v16H400Zm32,0h16v16H432Zm32,0h16v16H464Zm0-32h16v16H464Zm0-32h16v16H464Z"/></svg>