<svg id="Outline" xmlns="http://www.w3.org/2000/svg" viewBox="0 0 512 512"><title>workstation-computer-desk-desktop computer-server</title><path d="M288,360v80a16.019,16.019,0,0,1-16,16H32a16.019,16.019,0,0,1-16-16V360a16.019,16.019,0,0,1,16-16H56v16H32v80H272V360H72V344H272A16.019,16.019,0,0,1,288,360ZM80,424H224V408H80Zm-32,0H64V408H48Zm192,0h16V408H240ZM64,376H48v16H64Zm16,0v16H96V376Zm32,0v16h16V376Zm32,0v16h16V376Zm32,0v16h16V376Zm48,0H208v16h16Zm32,0H240v16h16Zm224,0V192H336V440H480V392h16v48a16.019,16.019,0,0,1-16,16H336a16.019,16.019,0,0,1-16-16V72a16.019,16.019,0,0,1,16-16H480a16.019,16.019,0,0,1,16,16V376ZM336,72v48H480V72ZM480,176V136H336v40ZM304,72V256a16.019,16.019,0,0,1-16,16H184v40h40v16H96V312h40V272H32a16.019,16.019,0,0,1-16-16V112H32V224H288V72H32V96H16V72A16.019,16.019,0,0,1,32,56H288A16.019,16.019,0,0,1,304,72ZM168,272H152v40h16Zm120-16V240H32v16ZM368,88H352v16h16Zm96,0H384v16h80ZM352,160h16V144H352Zm32-16v16h80V144ZM352,424h16V240H352Zm16-216H352v16h16Zm32,216V208H384V424Zm32,0V208H416V424Zm32,0V208H448V424ZM64,88H48v16H64ZM48,184H64V120H48Z"/></svg>