<svg id="Outline" xmlns="http://www.w3.org/2000/svg" viewBox="0 0 512 512"><title>error 404-page not found-error-server-error</title><path d="M480,320H32V104H16V352a40.045,40.045,0,0,0,40,40H197.526L177.89,464H152v16H360V464H334.11L318.264,405.9l-15.436,4.21L317.526,464H194.474l19.636-72H456a40.045,40.045,0,0,0,40-40V288H480Zm-24,56H56a24.028,24.028,0,0,1-24-24V336H480v16A24.028,24.028,0,0,1,456,376ZM496,72V272H480V72a24.028,24.028,0,0,0-24-24H56A24.028,24.028,0,0,0,32,72V88H16V72A40.045,40.045,0,0,1,56,32H456A40.045,40.045,0,0,1,496,72ZM153.445,255.6a10.963,10.963,0,0,0,9.519,16.4H349.036a10.964,10.964,0,0,0,9.52-16.4L272.992,105.861a19.57,19.57,0,0,0-33.984,0l-14.919,26.108L210.2,124.031l14.919-26.108a35.572,35.572,0,0,1,61.77,0l85.562,149.735A26.964,26.964,0,0,1,349.036,288H162.964a26.962,26.962,0,0,1-23.41-40.342l61.5-107.627,13.892,7.938ZM264,224H248V136h16Zm-16,16h16v16H248ZM64,96H48V80H64ZM48,112H64v80H48Z"/></svg>