<svg id="Outline" xmlns="http://www.w3.org/2000/svg" viewBox="0 0 512 512"><title>firewall-protection-network-analog-security</title><path d="M496,360V96a8,8,0,0,0-8-8H56a8,8,0,0,0-8,8v56H96v32H64V168H48V272H64V248h8V232H64V200h80v32h16V200h80v32H200v48h16V248h72v32H216v16H336v32H264v16h24v32H264v16h72v32H256v16H488a8,8,0,0,0,8-8V376H448V344h32v16ZM448,184V152h32v32Zm32,16v32H448V200Zm-48-16H408V152h24Zm-80-48V104h80v32Zm-16,0H256V104h80Zm-96,0H160V104h80Zm48,16v32H208V152Zm16,0h88v32H304Zm128,48v32H352V200Zm0,48v32H408V248Zm16,0h32v32H448Zm32-112H448V104h32ZM64,104h80v32H64Zm48,48h80v32H112Zm144,48h80v32H256Zm48,48h88v32H304Zm48,48h80v32H352Zm-48,48h88v32H304Zm48,48h80v32H352Zm128,0v32H448V392Zm-48-16H408V344h24Zm16-48V296h32v32ZM252.052,314.069c-.9,1.467-3.266,6.462-6.85,22.112l-.186.812a99.7,99.7,0,0,0-2.395,28.74c.917,14.662,5.921,28.879,4.353,43.71-2.694,25.465-15.39,47.892-34.833,61.53-15.643,10.973-35.52,16.364-62.554,16.967-24.377.545-49.844-1.475-72.3-11.7S39.012,448.5,32.74,426.923a105.764,105.764,0,0,1-3.89-27.748l16-.358A90.339,90.339,0,0,0,48.1,422.458c4.95,17.03,17.67,30.959,35.818,39.222,20.219,9.206,43.377,10.753,65.309,10.264,23.72-.528,40.791-5,53.722-14.069,15.656-10.983,25.9-29.249,28.109-50.115,1.458-13.8-3.554-27.344-4.41-41.029a115.633,115.633,0,0,1,2.778-33.353l.176-.769c1.055-4.606,2.064-8.626,3.061-12.126-5.749,2.615-10.5,6.029-13.23,10.818-2.387,4.189-3.219,9.557-4.1,15.241-1,6.439-2.132,13.739-5.834,20.406a35.592,35.592,0,0,1-19.561,16.2c-8.172,2.758-16.349,2.015-22.436-2.039-6.64-4.424-10.4-12.71-9.823-21.624.821-12.569,8.054-20.69,14.436-27.856,4.218-4.734,8.2-9.206,9.874-14.467,5.513-17.34-14.591-31.839-15.882-48.478a32.56,32.56,0,0,1,2.444-14.58c-7.2,4.517-12.526,11.831-13.456,19.892a45.18,45.18,0,0,0,.153,8.1c.514,6.88,1.153,15.443-4.694,22.761a24.326,24.326,0,0,1-21.354,8.909,23.4,23.4,0,0,1-18.993-13.662c-4.328-10.182.143-19.846,3.734-27.611a67.521,67.521,0,0,0,3.372-8.15c2.488-8.144-3.5-18.466-7.3-23.893a41.692,41.692,0,0,0-8.54-8.889A65.955,65.955,0,0,1,95.343,264.4c-3.785,7.991-8.287,15.77-10.682,24.334-3.97,14.2,6.151,30.316,14.131,41.34,5.674,7.838,14.247,19.681,5.551,34.021-4.8,7.914-14.85,13.133-25.084,12.958-8.848-.141-16.195-4.255-20.155-11.287-3.911-6.939-3.884-14.349-3.862-20.887.013-3.718.025-7.23-.7-10.056-1.487-5.811-8.32-13.078-15.917-17.538,5.082,13.115,7.554,26.243,7.671,34.94.1,7.749-.328,15.56-.748,23.114-.166,3-.333,6.009-.467,9.011l-15.984-.71c.136-3.062.3-6.125.475-9.187.423-7.619.822-14.815.726-22.012-.144-10.6-4.717-28.8-13.183-43.088a8,8,0,0,1,6.134-12.043c19.716-1.859,42.612,17.212,46.793,33.546,1.939,7.578-3.084,29.949,9.472,30.2,4.529.09,9.285-2.188,11.145-5.256,4.7-7.747-5.824-17.127-9.428-23.086-8.617-14.249-16.78-31.131-11.98-48.289,2.649-9.47,7.447-18.039,11.631-26.873a49.815,49.815,0,0,0,1.609-38.729,8,8,0,0,1,10.43-10.265c12.965,5.133,23.412,12.992,30.213,22.727,9.563,13.685,12.842,26.733,9.482,37.732-2.038,6.672-10.69,17.756-7.684,24.826a7.508,7.508,0,0,0,5.947,4.009,8.381,8.381,0,0,0,7.177-2.985c4.125-5.165.444-16.623,1.145-22.708,2.562-22.192,23.486-39.554,46.654-38.728a8,8,0,0,1,6.122,12.78c-5.52,7.4-10.432,14.584-9.917,21.231.67,8.631,8.141,16.876,11.625,24.642,4.23,9.431,6.783,19.771,3.553,29.923-2.707,8.51-8.267,14.753-13.174,20.26-4.57,5.132-9.949,11.069-10.418,18.256-.457,7.015,5.282,9.451,11.181,7.46a19.407,19.407,0,0,0,10.685-8.807c6.068-10.93,3.683-24.675,10.02-35.8,8.187-14.372,24.336-20.021,40.568-23.985a8,8,0,0,1,5.95,14.672Z"/></svg>