<svg id="Outline" xmlns="http://www.w3.org/2000/svg" viewBox="0 0 512 512"><title>hacker-cybercrime-computer-hacking-attack</title><path d="M496,360V296.275a72.307,72.307,0,0,0-52.22-69.23L389.8,211.623a8.033,8.033,0,0,1-5.8-7.691V124.371a39.922,39.922,0,0,0-10.4-26.907L311.442,29.093A40.081,40.081,0,0,0,281.844,16H230.156a40.081,40.081,0,0,0-29.6,13.093L180.99,50.618l11.839,10.764L212.4,39.856A24.048,24.048,0,0,1,230.156,32H248V96H176v16H336V96H264V32h17.844A24.048,24.048,0,0,1,299.6,39.856l62.155,68.371A23.953,23.953,0,0,1,368,124.371v7.934A31.793,31.793,0,0,0,352,128H160a31.793,31.793,0,0,0-16,4.305v-7.934a23.952,23.952,0,0,1,6.241-16.143l31.678-34.846L170.081,62.618,138.4,97.465A39.918,39.918,0,0,0,128,124.371v79.561a8.033,8.033,0,0,1-5.8,7.691L68.22,227.045A72.307,72.307,0,0,0,16,296.275V444.61A51.356,51.356,0,0,0,67.389,496H444.611A51.356,51.356,0,0,0,496,444.61V376H480v31.345a51.352,51.352,0,0,0-15.148-9.967L408,373.006V272a24.027,24.027,0,0,0-24-24H360.646l12.836-16.045h0a47.786,47.786,0,0,0,5.211-8.079,23.731,23.731,0,0,0,6.714,3.133l53.977,15.422A56.238,56.238,0,0,1,480,296.275V360ZM176,192h64v16h16V192h80v4.414a24.045,24.045,0,0,1-5.563,15.365L300.253,248h-80.94L183.03,211.717A23.85,23.85,0,0,1,176,194.745Zm80-17.911q.765.968,1.573,1.911h-3.147Q255.233,175.057,256,174.089Zm38.693,1.693c-10.869,1.163-18.78-2.272-26.386-11.967l43.575-16.257C311.245,165.141,307.578,174.408,294.693,175.782ZM256,151.331,236.354,144h39.292Zm-12.307,12.484c-7.606,9.694-15.515,13.126-26.386,11.967-10.409-1.109-16.2-6.048-17.155-28.213ZM336,176H321.592a38.682,38.682,0,0,0,3.038-6.691C327.5,161.04,327.957,151.977,328,144h8ZM184,144c.04,7.977.5,17.04,3.367,25.309A38.682,38.682,0,0,0,190.408,176H176V144Zm-24,0v50.745a39.742,39.742,0,0,0,11.716,28.285L196.686,248H179.313l-25.94-25.94A31.8,31.8,0,0,1,144,199.432V160A16.019,16.019,0,0,1,160,144ZM67.381,480.123c-15.393-1.037-30.136-10.671-34.265-26.679a35.368,35.368,0,0,1,20.336-41.361L104,390.414V440a23.844,23.844,0,0,0,2.346,10.341A7.972,7.972,0,0,0,104,456v7.076l-8.986,7.986A37.531,37.531,0,0,1,67.381,480.123ZM128,480a8.009,8.009,0,0,1-8-8v-8H392v8a8.009,8.009,0,0,1-8,8Zm330.549-67.916a35.407,35.407,0,0,1,20.335,41.36c-6.756,26.2-42.114,35.207-61.9,17.616L408,463.076V456a7.972,7.972,0,0,0-2.346-5.659A23.844,23.844,0,0,0,408,440V390.414ZM392,272V440a8.009,8.009,0,0,1-8,8H128a8.009,8.009,0,0,1-8-8V304H104v69.006L47.148,397.377A51.371,51.371,0,0,0,32,407.346V296.275A56.238,56.238,0,0,1,72.616,242.43l53.977-15.422a23.772,23.772,0,0,0,7.686-3.828,48.244,48.244,0,0,0,7.78,10.193L156.686,248H128a24.027,24.027,0,0,0-24,24v16h16V272a8.009,8.009,0,0,1,8-8H384A8.009,8.009,0,0,1,392,272Zm-51.845-24H321.08l21.649-25.979A40.069,40.069,0,0,0,352,196.414V144a16.019,16.019,0,0,1,16,16v41.969a32.115,32.115,0,0,1-7.012,19.99ZM256,328a32,32,0,1,0,32,32A32.036,32.036,0,0,0,256,328Zm0,48a16,16,0,1,1,16-16A16.019,16.019,0,0,1,256,376Z"/></svg>