<svg id="Outline" xmlns="http://www.w3.org/2000/svg" viewBox="0 0 512 512"><title>hard drive-data-storage-disk-hard drive</title><path d="M416,416H96V112H80V480a16.019,16.019,0,0,0,16,16H416a16.019,16.019,0,0,0,16-16V368H416Zm-32,16v16H352V432ZM160,448V432h16v16Zm32-16h16v16H192Zm32,0h16v16H224Zm32,0h16v16H256Zm32,0h16v16H288Zm-144,0v16H128V432ZM96,480V432h16v24a8,8,0,0,0,8,8H312a8,8,0,0,0,8-8V432h16v24a8,8,0,0,0,8,8h48a8,8,0,0,0,8-8V432h16v48ZM432,32V352H416V32H96V96H80V32A16.019,16.019,0,0,1,96,16H416A16.019,16.019,0,0,1,432,32ZM256,80V96a96.108,96.108,0,0,0-96,96H144A112.127,112.127,0,0,1,256,80Zm0,208a96.108,96.108,0,0,0,96-96h16A112.127,112.127,0,0,1,256,304Zm0-160a64.072,64.072,0,0,0-64,64H176a80.091,80.091,0,0,1,80-80Zm64,64h16a80.091,80.091,0,0,1-80,80V256A64.072,64.072,0,0,0,320,192Zm-64-48a48,48,0,1,0,48,48A48.054,48.054,0,0,0,256,144Zm0,80a32,32,0,1,1,32-32A32.036,32.036,0,0,1,256,224Zm-95.528,75.755L133.089,323.15a34.2,34.2,0,0,0-11.82,29.16l.025.264a34.165,34.165,0,0,0,33.947,30.98q1.614,0,3.243-.153h0a34.125,34.125,0,0,0,26.729-17.509l21.3-38.619A143.234,143.234,0,0,0,256,336c79.4,0,144-64.6,144-144S335.4,48,256,48a143.191,143.191,0,0,0-81.715,25.416l9.09,13.168A127.972,127.972,0,1,1,214.349,313.07l25.366-45.985a8,8,0,0,0-1.9-10.023l-8.71-7.221a8,8,0,0,0-10.3.077l-46.034,39.331a128.008,128.008,0,0,1-.957-193.67L161.284,83.531a144.007,144.007,0,0,0-.812,216.224Zm59.277-29.6L171.2,358.163A18.143,18.143,0,0,1,157,367.472h0a18.158,18.158,0,0,1-19.77-16.4l-.025-.264a18.179,18.179,0,0,1,6.284-15.5ZM272,192a16,16,0,1,1-16-16A16.019,16.019,0,0,1,272,192ZM384,400V384h16v16ZM112,384h16v16H112ZM400,64H384V48h16ZM128,48V64H112V48Z"/></svg>