<svg id="Outline" xmlns="http://www.w3.org/2000/svg" viewBox="0 0 512 512"><title>internet-connect-computer-network-connection</title><path d="M181.54,47.678,170.46,36.135a217.8,217.8,0,0,1,16.613-14.4l9.854,12.606A201.731,201.731,0,0,0,181.54,47.678ZM496,264a23.972,23.972,0,0,1-28.235,23.618c-2.966,4.573-6.151,9.042-9.53,13.332A175.147,175.147,0,0,1,320,368h-8V262.624a24,24,0,0,1,0-45.248V200H246.624a24.12,24.12,0,0,1-13.778,14.3c.615,8.263,1.566,16.448,2.864,24.41l-15.792,2.574c-1.4-8.6-2.417-17.452-3.065-26.374A24.111,24.111,0,0,1,201.376,200H160.221a159.8,159.8,0,0,0,6,36.346l-15.376,4.425a176.987,176.987,0,0,1-4.563-77.094,23.983,23.983,0,0,1,13.08-43.661,174.92,174.92,0,0,1,10.7-20.215A176,176,0,0,1,320,16a175.106,175.106,0,0,1,93.1,26.627,23.987,23.987,0,0,1,34.048,27.684A176.221,176.221,0,0,1,487.616,245.8,23.95,23.95,0,0,1,496,264ZM458.574,112H405.238a279.253,279.253,0,0,1,9.921,57.091A24.109,24.109,0,0,1,430.624,184h49.154A159.4,159.4,0,0,0,458.574,112ZM408,184a8,8,0,1,0,8,8A8.009,8.009,0,0,0,408,184Zm8-120a8,8,0,1,0,8-8A8.009,8.009,0,0,0,416,64ZM365.343,38.53C379.23,52.254,391.181,71.815,400.03,96h47.976q-4.816-6.411-10.28-12.329a23.99,23.99,0,0,1-35.794-29.1A158.689,158.689,0,0,0,365.343,38.53ZM328,96h54.9C369.421,62.155,349.663,39.78,328,33.7Zm0,88h57.376a24.12,24.12,0,0,1,13.78-14.3A264.889,264.889,0,0,0,388.538,112H328Zm0,33.376a24,24,0,0,1,0,45.248V288h41.376a24.07,24.07,0,0,1,19.084-15.737,264.59,264.59,0,0,0,10.7-57.958A24.12,24.12,0,0,1,385.376,200H328ZM392,288a8,8,0,1,0,8,8A8.009,8.009,0,0,0,392,288ZM254.1,84.6A24.1,24.1,0,0,1,262.624,96H312V32.2l-.146.006-.022,0C289.924,34.322,269.145,53.284,254.1,84.6ZM191.989,96h25.387a24.048,24.048,0,0,1,21.185-15.953c6.908-14.879,15.1-27.479,24.208-37.464A160.2,160.2,0,0,0,191.989,96ZM160,152a8,8,0,1,0-8-8A8.009,8.009,0,0,0,160,152Zm56.845,17.089a287.241,287.241,0,0,1,7.282-47.109,24.086,24.086,0,0,1-6.751-9.98H181.417q-3.675,6.352-6.755,13.019a23.981,23.981,0,0,1-12.854,42.906c-.8,5.316-1.341,10.687-1.608,16.075h41.176A24.114,24.114,0,0,1,216.845,169.089ZM232,192a8,8,0,1,0-8,8A8.009,8.009,0,0,0,232,192Zm0-88a8,8,0,1,0,8-8A8.009,8.009,0,0,0,232,104Zm80,80V112H262.624A24.039,24.039,0,0,1,240,128c-.289,0-.576-.012-.862-.022a272.045,272.045,0,0,0-6.3,41.715A24.124,24.124,0,0,1,246.624,184Zm16,56a8,8,0,1,0-8,8A8.009,8.009,0,0,0,328,240Zm44.4,69.83a23.933,23.933,0,0,1-3.028-5.83H328v46.463C344.371,345.832,359.8,331.762,372.4,309.83ZM434.269,304H414.624a23.976,23.976,0,0,1-29.107,15.1,130.005,130.005,0,0,1-20.031,26.361A158.879,158.879,0,0,0,434.269,304ZM472,240c.225,0,.448.011.672.017A159.292,159.292,0,0,0,479.8,200H430.624a24.11,24.11,0,0,1-15.464,14.909,277.056,277.056,0,0,1-10.913,60.462A24.129,24.129,0,0,1,414.624,288h33.365q3.059-4.077,5.852-8.334A23.981,23.981,0,0,1,472,240Zm8,24a8,8,0,1,0-8,8A8.009,8.009,0,0,0,480,264ZM56,280a8.009,8.009,0,0,1,8-8H272a8.009,8.009,0,0,1,8,8V424h16V280a24.027,24.027,0,0,0-24-24H64a24.027,24.027,0,0,0-24,24v16H56ZM320,448v24a24.027,24.027,0,0,1-24,24H40a24.027,24.027,0,0,1-24-24V448a8,8,0,0,1,8-8H40V312H56V440h80a8,8,0,0,1,5.657,2.343L147.313,448h41.374l5.656-5.657A8,8,0,0,1,200,440H312A8,8,0,0,1,320,448Zm-16,8H203.313l-5.656,5.657A8,8,0,0,1,192,464H144a8,8,0,0,1-5.657-2.343L132.687,456H32v16a8.009,8.009,0,0,0,8,8H296a8.009,8.009,0,0,0,8-8ZM125.352,238.161A200.42,200.42,0,0,1,169.4,60.391L157.358,49.857A216.424,216.424,0,0,0,109.78,241.839ZM320,392c-2.558,0-5.147-.049-7.7-.146l-.606,15.989c2.751.1,5.545.157,8.3.157a214.825,214.825,0,0,0,170.266-83.072l-12.606-9.856A198.917,198.917,0,0,1,320,392ZM208,360a24,24,0,0,1,0,48H128a24,24,0,0,1,0-48Zm0,16H128a8,8,0,0,0,0,16h80a8,8,0,0,0,0-16ZM72,288v16H88V288Zm32,0v16h16V288Zm32,0v16h16V288Zm128,32H72v16H264Z"/></svg>