<svg id="Outline" xmlns="http://www.w3.org/2000/svg" viewBox="0 0 512 512"><title>laptop-computer-desk-notebook-desk</title><path d="M64,152H48V120A32.036,32.036,0,0,1,80,88H432a32.036,32.036,0,0,1,32,32V336H448V120a16.019,16.019,0,0,0-16-16H80a16.019,16.019,0,0,0-16,16Zm32-24H80v16H96ZM80,224H96V160H80ZM496,392v24a32.036,32.036,0,0,1-32,32H48a32.036,32.036,0,0,1-32-32V392a8,8,0,0,1,8-8H48V168H64V384H208a8,8,0,0,1,5.657,2.343L219.313,392h73.374l5.656-5.657A8,8,0,0,1,304,384H448V352h16v32h24A8,8,0,0,1,496,392Zm-16,8H307.313l-5.656,5.657A8,8,0,0,1,296,408H216a8,8,0,0,1-5.657-2.343L204.687,400H32v16a16.019,16.019,0,0,0,16,16H464a16.019,16.019,0,0,0,16-16ZM424,160a16.019,16.019,0,0,1-16,16H392a16.019,16.019,0,0,1-16-16V144a16.019,16.019,0,0,1,16-16h16a16.019,16.019,0,0,1,16,16Zm-15.99,0L408,144H392v16h16.01ZM360,160a16.019,16.019,0,0,1-16,16H328a16.019,16.019,0,0,1-16-16V144a16.019,16.019,0,0,1,16-16h16a16.019,16.019,0,0,1,16,16Zm-15.99,0L344,144H328v16h16.01ZM424,224a16.019,16.019,0,0,1-16,16H392a16.019,16.019,0,0,1-16-16V208a16.019,16.019,0,0,1,16-16h16a16.019,16.019,0,0,1,16,16Zm-15.99,0L408,208H392v16h16.01ZM360,224a16.019,16.019,0,0,1-16,16H328a16.019,16.019,0,0,1-16-16V208a16.019,16.019,0,0,1,16-16h16a16.019,16.019,0,0,1,16,16Zm-15.99,0L344,208H328v16h16.01ZM424,288a16.019,16.019,0,0,1-16,16H392a16.019,16.019,0,0,1-16-16V272a16.019,16.019,0,0,1,16-16h16a16.019,16.019,0,0,1,16,16Zm-15.99,0L408,272H392v16h16.01ZM360,288a16.019,16.019,0,0,1-16,16H328a16.019,16.019,0,0,1-16-16V272a16.019,16.019,0,0,1,16-16h16a16.019,16.019,0,0,1,16,16Zm-15.99,0L344,272H328v16h16.01ZM424,336v16a16.019,16.019,0,0,1-16,16H392a16.019,16.019,0,0,1-16-16V336a16.019,16.019,0,0,1,16-16h16A16.019,16.019,0,0,1,424,336Zm-15.99,16L408,336H392v16h16.01ZM360,336v16a16.019,16.019,0,0,1-16,16H328a16.019,16.019,0,0,1-16-16V336a16.019,16.019,0,0,1,16-16h16A16.019,16.019,0,0,1,360,336Zm-15.99,16L344,336H328v16h16.01Z"/></svg>