<svg id="Outline" xmlns="http://www.w3.org/2000/svg" viewBox="0 0 512 512"><title>mouse-computer-device-gadget-pc</title><path d="M488,64h-8V24a8,8,0,0,0-8-8H408a8,8,0,0,0-8,8V64h-8a8,8,0,0,0-8,8v31.079h16V80h80V96H416v16h64v32a40,40,0,0,1-80,0V122.578H384V144a56.078,56.078,0,0,0,48,55.419V389.735a63.87,63.87,0,0,0-96,0V80a64.072,64.072,0,0,0-64-64H176a64.072,64.072,0,0,0-64,64v80.315a103.822,103.822,0,0,0-83.972,55.094l14.141,7.485A87.859,87.859,0,0,1,112,176.373v33A24.039,24.039,0,0,0,96,232v32a24.039,24.039,0,0,0,16,22.624V312h16V286.624A24.039,24.039,0,0,0,144,264V232a24.039,24.039,0,0,0-16-22.624V176.367A88.118,88.118,0,0,1,208,264V392a88,88,0,0,1-176,0V264a88.409,88.409,0,0,1,2.65-21.529l-15.517-3.9A104.4,104.4,0,0,0,16,264V392a104,104,0,0,0,208,0V264a104.139,104.139,0,0,0-96-103.695V80a48.053,48.053,0,0,1,48-48h96a48.053,48.053,0,0,1,48,48V432a64,64,0,0,0,128,0V199.419A56.078,56.078,0,0,0,496,144V72A8,8,0,0,0,488,64ZM128,264a8,8,0,0,1-16,0V232a8,8,0,0,1,16,0ZM384,480a48,48,0,1,1,48-48A48.053,48.053,0,0,1,384,480ZM416,64V32h48V64Z"/></svg>