<svg id="Outline" xmlns="http://www.w3.org/2000/svg" viewBox="0 0 512 512"><title>network switch-switch-connection-network-computer</title><path d="M480,368V320H32v88H480V384h16v24a16.019,16.019,0,0,1-16,16H32a16.019,16.019,0,0,1-16-16V152H32V304H480V104H32v32H16V104A16.019,16.019,0,0,1,32,88H480a16.019,16.019,0,0,1,16,16V368ZM248,336v8h8a8,8,0,0,1,8,8v32a8,8,0,0,1-8,8H224a8,8,0,0,1-8-8V352a8,8,0,0,1,8-8h8v-8Zm0,24H232v16h16Zm-64-24v8h8a8,8,0,0,1,8,8v32a8,8,0,0,1-8,8H160a8,8,0,0,1-8-8V352a8,8,0,0,1,8-8h8v-8Zm0,24H168v16h16Zm-64-24v8h8a8,8,0,0,1,8,8v32a8,8,0,0,1-8,8H96a8,8,0,0,1-8-8V352a8,8,0,0,1,8-8h8v-8Zm0,24H104v16h16Zm320-24v8h8a8,8,0,0,1,8,8v32a8,8,0,0,1-8,8H416a8,8,0,0,1-8-8V352a8,8,0,0,1,8-8h8v-8Zm0,24H424v16h16Zm-64-24v8h8a8,8,0,0,1,8,8v32a8,8,0,0,1-8,8H352a8,8,0,0,1-8-8V352a8,8,0,0,1,8-8h8v-8Zm0,24H360v16h16Zm-64-24v8h8a8,8,0,0,1,8,8v32a8,8,0,0,1-8,8H288a8,8,0,0,1-8-8V352a8,8,0,0,1,8-8h8v-8Zm0,24H296v16h16ZM72,376V360H56v16ZM64,120H48v16H64ZM48,232H64V152H48Z"/></svg>