<svg id="Outline" xmlns="http://www.w3.org/2000/svg" viewBox="0 0 512 512"><title>network quality-speed-internet-test-download</title><path d="M384,376H32V192a23.865,23.865,0,0,1,11.522-20.506l-8.335-13.656A39.747,39.747,0,0,0,16,192V400a40.045,40.045,0,0,0,40,40H165.394l-11.429,40H128v16H288V480H262.035l-11.429-40H312V424H56a24.027,24.027,0,0,1-24-24v-8H384v8a24.028,24.028,0,0,1-24,24H328v16h32a40.045,40.045,0,0,0,40-40V272H384ZM233.966,440l11.428,40H170.606l11.428-40ZM360,256V360H344V256ZM72,360H56V112A32.036,32.036,0,0,1,88,80H256V96H88a16.019,16.019,0,0,0-16,16Zm32-248v16H88V112Zm32,0v16H120V112Zm32,0v16H152V112ZM88,144H240v16H88Zm164.3,58.811,7.4-14.188A112.021,112.021,0,0,0,113.783,348.576a8,8,0,0,0,11.052,2.4l26.936-17.317a8,8,0,0,0,2.4-11.061,63.928,63.928,0,0,1-1.737-66.334l0,0a63.961,63.961,0,0,1,106.7-6.7l-35.48,20.275a24.015,24.015,0,1,0,7.951,13.884l35.482-20.276A63.911,63.911,0,0,1,261.83,322.6a8,8,0,0,0,2.4,11.062l26.936,17.317a8,8,0,0,0,11.052-2.4,111.924,111.924,0,0,0-16.678-141.392l-11.078,11.545A96.409,96.409,0,0,1,287.1,233.583l-13.971,7.984A80.319,80.319,0,0,0,216,208.4V192.322A94.567,94.567,0,0,1,252.3,202.811ZM208,296a8,8,0,1,1,8-8A8.009,8.009,0,0,1,208,296Zm84.813,37.012-13.533-8.7a79.955,79.955,0,0,0,1.8-68.856l13.971-7.983a96.174,96.174,0,0,1-2.234,85.539Zm-169.626,0a96.174,96.174,0,0,1-2.234-85.539l13.971,7.984a79.949,79.949,0,0,0,1.8,68.855Zm19.685-91.442-13.97-7.983A96.391,96.391,0,0,1,200,192.336V208.4A80.318,80.318,0,0,0,142.872,241.57ZM496,136a8,8,0,0,0-2.612-5.914L471.726,110.35l8.892-27.922A8,8,0,0,0,474.7,72.185l-28.627-6.261L439.815,37.3a8,8,0,0,0-10.243-5.914L401.65,40.274,381.914,18.612a8,8,0,0,0-11.828,0L350.35,40.274l-27.922-8.892A8,8,0,0,0,312.185,37.3l-6.262,28.628L277.3,72.185a8,8,0,0,0-5.914,10.243l8.892,27.922-21.662,19.736a8,8,0,0,0,0,11.828l21.662,19.736-8.892,27.922a8,8,0,0,0,5.914,10.243l28.627,6.261,6.262,28.628a8,8,0,0,0,10.243,5.914l27.922-8.892,19.736,21.662a8,8,0,0,0,11.828,0l19.736-21.662,27.922,8.892a8,8,0,0,0,10.243-5.914l6.262-28.628,28.627-6.261a8,8,0,0,0,5.914-10.243l-8.892-27.922,21.662-19.736A8,8,0,0,0,496,136Zm-38.841,17.276a8,8,0,0,0-2.235,8.342l7.784,24.443-25.06,5.48a8,8,0,0,0-6.106,6.106l-5.481,25.061-24.443-7.784a8.007,8.007,0,0,0-8.341,2.235L376,236.121l-17.277-18.962a8,8,0,0,0-8.341-2.235l-24.443,7.784-5.481-25.061a8,8,0,0,0-6.106-6.106l-25.06-5.48,7.784-24.443a8,8,0,0,0-2.235-8.342L275.878,136l18.963-17.276a8,8,0,0,0,2.235-8.342l-7.784-24.443,25.06-5.48a8,8,0,0,0,6.106-6.106l5.481-25.061,24.443,7.784a8,8,0,0,0,8.341-2.235L376,35.879l17.277,18.962a8.005,8.005,0,0,0,8.341,2.235l24.443-7.784,5.481,25.061a8,8,0,0,0,6.106,6.106l25.06,5.48-7.784,24.443a8,8,0,0,0,2.235,8.342L476.122,136ZM416,112H400V96a24.028,24.028,0,0,0-24-24H360a8,8,0,0,0-8,8v27.056l-27.578,13.789A8,8,0,0,0,320,128v56a8,8,0,0,0,8,8h88a16.019,16.019,0,0,0,16-16V128A16.019,16.019,0,0,0,416,112Zm0,64H336V132.944l27.578-13.789A8,8,0,0,0,368,112V88h8a8.009,8.009,0,0,1,8,8v24a8,8,0,0,0,8,8h24ZM120,192H88V176h32ZM88,208h16v16H88Z"/></svg>