<svg id="Outline" xmlns="http://www.w3.org/2000/svg" viewBox="0 0 512 512"><title>networking-network-computer-connection-server</title><path d="M232,80h13.754l-4,16H232v16h48V96h-9.754l-4-16H280a16.019,16.019,0,0,0,16-16V32a16.019,16.019,0,0,0-16-16H232a16.019,16.019,0,0,0-16,16V64A16.019,16.019,0,0,0,232,80Zm0-48h48l.01,32H232Zm48,368H232a16.019,16.019,0,0,0-16,16v32a16.019,16.019,0,0,0,16,16h13.754l-4,16H232v16h48V480h-9.754l-4-16H280a16.019,16.019,0,0,0,16-16V416A16.019,16.019,0,0,0,280,400Zm0,48H232V416h48l.01,32ZM16,152V136H32v16H80V120H16a16.019,16.019,0,0,1,16-16H80a16.019,16.019,0,0,1,16,16v32a16.019,16.019,0,0,1-16,16H66.246l4,16H80v16H32V184h9.754l4-16H32A16.019,16.019,0,0,1,16,152ZM80,312H32a16.019,16.019,0,0,0-16,16v32a16.019,16.019,0,0,0,16,16H45.754l-4,16H32v16H80V392H70.246l-4-16H80a16.019,16.019,0,0,0,16-16V328A16.019,16.019,0,0,0,80,312Zm0,48H32V328H80l.01,32ZM480,104H432a16.019,16.019,0,0,0-16,16v32a16.019,16.019,0,0,0,16,16h13.754l-4,16H432v16h48V184h-9.754l-4-16H480a16.019,16.019,0,0,0,16-16V120A16.019,16.019,0,0,0,480,104Zm0,48H432V120h48l.01,32Zm16,176v16H480V328H432v32h64a16.019,16.019,0,0,1-16,16H466.246l4,16H480v16H432V392h9.754l4-16H432a16.019,16.019,0,0,1-16-16V328a16.019,16.019,0,0,1,16-16h48A16.019,16.019,0,0,1,496,328ZM264,128v56H248V128ZM248,392V368H128V352H248V328h16v24H384v16H264v24ZM204.3,294.749l-88,56-8.59-13.5,88-56ZM340.13,196.617l-42.786-64.179,13.312-8.876,42.975,64.463,42.074-26.774,8.59,13.5-41.787,26.592,60.148,90.221-13.312,8.876-60.337-90.506L316.3,230.749l-8.59-13.5Zm55.575,154.132-88-56,8.59-13.5,88,56ZM216,232v72a8,8,0,0,0,8,8h64a8,8,0,0,0,8-8V208a8,8,0,0,0-8-8H224a8,8,0,0,0-8,8v8h64v16Zm64,16v16H232V248Zm-48,48V280h48v16ZM48,216H64v80H48Zm67.831-88.977-7.662-14.046,88-48,7.662,14.046Zm-7.8,266.067,96,56-8.062,13.82-96-56ZM464,208v88H448V208Zm-67.831-80.977-88-48,7.662-14.046,88,48Zm7.8,266.067,8.062,13.82-96,56-8.062-13.82ZM152.254,203.1l-44.549-28.349,8.59-13.5L161,189.7l48.3-74.066,13.4,8.74-48.207,73.917,29.8,18.964-8.59,13.5-29.951-19.06L102.7,308.37l-13.4-8.74Z"/></svg>