<svg id="Outline" xmlns="http://www.w3.org/2000/svg" viewBox="0 0 512 512"><title>router-wifi-network-internet-connect</title><path d="M496,368V224a40.045,40.045,0,0,0-40-40h-6.775l20.9-146.324a18.991,18.991,0,0,0-29.334-18.487L423.57,30.672a19.038,19.038,0,0,0-8.223,12.839L393.164,184H344.39l7.053-148.106A18.991,18.991,0,0,0,332.474,16h-1.146a18.934,18.934,0,0,0-10.534,3.189l-16.644,11.1a19.082,19.082,0,0,0-8.429,14.8L288.41,184H223.59L216.279,45.087a19.083,19.083,0,0,0-8.43-14.8L191.206,19.189A18.934,18.934,0,0,0,180.672,16h-1.146a18.991,18.991,0,0,0-18.969,19.9L167.61,184H118.836L96.653,43.512a19.038,19.038,0,0,0-8.223-12.84L71.206,19.189A18.991,18.991,0,0,0,41.872,37.676l3.922,27.455,15.84-2.262L57.712,35.412a2.99,2.99,0,0,1,4.619-2.91L79.555,43.984a3,3,0,0,1,1.294,2.023L102.638,184h-23.7L63.689,77.258,47.85,79.521,62.775,184H56a40.045,40.045,0,0,0-40,40V408a40.045,40.045,0,0,0,40,40h3.056l9.367,18.732A23.867,23.867,0,0,0,89.889,480H422.111a23.868,23.868,0,0,0,21.466-13.267L452.944,448H456a40.045,40.045,0,0,0,40-40V385H480v23a24.028,24.028,0,0,1-24,24H56a24.028,24.028,0,0,1-24-24V224a24.028,24.028,0,0,1,24-24H456a24.028,24.028,0,0,1,24,24V368Zm-60.944,80-5.789,11.578A7.958,7.958,0,0,1,422.111,464H89.889a7.957,7.957,0,0,1-7.156-4.423L76.944,448ZM183.628,184,176.539,35.134a2.978,2.978,0,0,1,.819-2.2,4.409,4.409,0,0,1,4.973-.429L198.973,43.6a3.007,3.007,0,0,1,1.328,2.333L207.567,184Zm120.805,0L311.7,45.929a3,3,0,0,1,1.327-2.332L329.669,32.5a4.347,4.347,0,0,1,4.969.425,2.971,2.971,0,0,1,.823,2.206L328.372,184Zm104.929,0L431.151,46.006a3,3,0,0,1,1.294-2.022L449.669,32.5a2.99,2.99,0,0,1,4.619,2.911L433.062,184ZM248,416V400h16v16Zm-40-16h16v16H208Zm-40,0h16v16H168Zm-40,16V400h16v16Zm240,0V400h16v16Zm-40-16h16v16H328Zm-40,0h16v16H288ZM64,240H48V224H64ZM48,256H64V360H48Z"/></svg>