<svg id="Outline" xmlns="http://www.w3.org/2000/svg" viewBox="0 0 512 512"><title>setting-database-server-setup-configuration</title><path d="M480,342h16v34a40.045,40.045,0,0,1-40,40H320V400H456a24.028,24.028,0,0,0,24-24ZM496,56V327H480V151.978A39.788,39.788,0,0,1,456,160H264a39.788,39.788,0,0,1-24-8.022V200H224V56a40.045,40.045,0,0,1,40-40H456A40.045,40.045,0,0,1,496,56Zm-16,64V56a23.991,23.991,0,0,0-24-24H264a23.991,23.991,0,0,0-24,24v64a24.028,24.028,0,0,0,24,24H456A24.028,24.028,0,0,0,480,120ZM256,64h16V48H256Zm0,48h16V80H256Zm96,272H456a8,8,0,0,0,8-8V184a8,8,0,0,0-8-8H264v16H448v48H328v16H448v48H352v16h96v48H352ZM336,208H320v16h16Zm16,0v16h16V208Zm32,0v16h48V208Zm-64,80h16V272H320Zm32-16v16h16V272Zm32,0v16h48V272Zm-32,64v16h16V336Zm32,0v16h48V336Zm-77.892,96.166a16.02,16.02,0,0,0,0-22.628l-15.814-15.8a.178.178,0,0,1,.026-.118,127.589,127.589,0,0,0,7.268-17.531c.018-.055.042-.081.04-.088H320a16.019,16.019,0,0,0,16-16V312a16.019,16.019,0,0,0-16-16l-22.352.01a.186.186,0,0,1-.061-.1,127.684,127.684,0,0,0-7.267-17.529c-.028-.057-.029-.1-.036-.1l15.823-15.823a16,16,0,0,0,0-22.628L290.274,224H304V208H288v13.726l-15.834-15.834a16.018,16.018,0,0,0-22.627,0l-15.8,15.815a.2.2,0,0,1-.118-.027,127.808,127.808,0,0,0-17.531-7.266.321.321,0,0,1-.089-.041V192a16.019,16.019,0,0,0-16-16H152a16.019,16.019,0,0,0-16,16l.009,22.352a.167.167,0,0,1-.1.061,127.907,127.907,0,0,0-17.534,7.268c-.053.027-.09.029-.094.035L102.46,205.892a16.018,16.018,0,0,0-22.627,0l-33.94,33.941a16,16,0,0,0,0,22.628l15.814,15.8a.178.178,0,0,1-.026.118,127.589,127.589,0,0,0-7.268,17.531c-.018.055-.042.081-.04.088H32a16.019,16.019,0,0,0-16,16H54.386a16.032,16.032,0,0,0,15.223-11.081,111.6,111.6,0,0,1,6.355-15.328,16.043,16.043,0,0,0-2.925-18.612L57.206,251.147l33.941-33.941,15.832,15.832a16.037,16.037,0,0,0,18.612,2.925,111.875,111.875,0,0,1,15.329-6.354A16.034,16.034,0,0,0,152,214.386V192h48v22.386a16.034,16.034,0,0,0,11.081,15.224,111.775,111.775,0,0,1,15.326,6.352,16.033,16.033,0,0,0,18.613-2.923l15.833-15.833,33.941,33.94L278.961,266.98a16.04,16.04,0,0,0-2.924,18.612,111.691,111.691,0,0,1,6.354,15.326A16.032,16.032,0,0,0,297.614,312H320v48H297.614a16.032,16.032,0,0,0-15.223,11.081,111.6,111.6,0,0,1-6.355,15.328,16.043,16.043,0,0,0,2.925,18.612l15.833,15.832-33.941,33.94-15.832-15.831a16.037,16.037,0,0,0-18.612-2.925,111.875,111.875,0,0,1-15.329,6.354A16.032,16.032,0,0,0,200,457.614V480H152V457.614a16.034,16.034,0,0,0-11.081-15.224,111.775,111.775,0,0,1-15.326-6.352,16.036,16.036,0,0,0-18.613,2.923L91.147,454.793l-33.941-33.94L73.039,405.02a16.04,16.04,0,0,0,2.924-18.612,111.691,111.691,0,0,1-6.354-15.326A16.032,16.032,0,0,0,54.386,360H32V328H16v32a16.019,16.019,0,0,0,16,16l22.352-.01a.186.186,0,0,1,.061.1,127.684,127.684,0,0,0,7.267,17.529c.028.057.029.1.036.1L45.892,409.539a16.02,16.02,0,0,0,0,22.628l33.94,33.939a16,16,0,0,0,22.628,0l15.8-15.814a.176.176,0,0,1,.118.027,127.808,127.808,0,0,0,17.531,7.266.321.321,0,0,1,.089.041V480a16.019,16.019,0,0,0,16,16h48a16.019,16.019,0,0,0,16-16l-.009-22.353a.175.175,0,0,1,.1-.06,127.907,127.907,0,0,0,17.534-7.268c.053-.027.09-.029.094-.035l15.823,15.822a16,16,0,0,0,22.628,0ZM108.8,279.178A87.959,87.959,0,1,0,123.187,265.6L132.8,278.4a72.017,72.017,0,1,1-11.783,11.118ZM176,376a40,40,0,1,1,40-40A40.045,40.045,0,0,1,176,376Zm0-16a24,24,0,1,0-24-24A24.028,24.028,0,0,0,176,360Zm-7.659-199.836-.682-15.986c-5.562.238-11.178.722-16.692,1.44l2.066,15.865C158.089,160.825,163.24,160.382,168.341,160.164Zm-30.61,4.007-3.462-15.621A190.867,190.867,0,0,0,34.088,206.672l11.824,10.781A174.935,174.935,0,0,1,137.731,164.171ZM267.82,486.181l8.36,13.642A194.238,194.238,0,0,0,334.6,444.237L321.4,435.208A178.123,178.123,0,0,1,267.82,486.181Z"/></svg>