<svg id="Outline" xmlns="http://www.w3.org/2000/svg" viewBox="0 0 512 512"><title>server-database-connect-data-access</title><path d="M496,456H286.987A32.117,32.117,0,0,0,264,433.013V408h80a32.036,32.036,0,0,0,32-32V360H360v16a16.019,16.019,0,0,1-16,16H168a16.019,16.019,0,0,1-16-16V176H136V376a32.036,32.036,0,0,0,32,32h80v25.013A32.117,32.117,0,0,0,225.013,456H16v16H225.013a32,32,0,0,0,61.974,0H496ZM256,480a16,16,0,1,1,16-16A16.019,16.019,0,0,1,256,480ZM152,147.7A31.793,31.793,0,0,0,168,152H344a31.793,31.793,0,0,0,16-4.305V344h16V48a32.036,32.036,0,0,0-32-32H168a32.036,32.036,0,0,0-32,32V160h16ZM152,48a16.019,16.019,0,0,1,16-16H344a16.019,16.019,0,0,1,16,16v72a16.019,16.019,0,0,1-16,16H168a16.019,16.019,0,0,1-16-16Zm24,120a8,8,0,0,0-8,8V368a8,8,0,0,0,8,8H336a8,8,0,0,0,8-8V176a8,8,0,0,0-8-8Zm152,16v48H184V184Zm0,64v48H184V248ZM184,360V312H328v48Zm32-144H200V200h16Zm32,0H232V200h16Zm32,0H264V200h16Zm32,0H296V200h16ZM200,280V264h16v16Zm48,0H232V264h16Zm32,0H264V264h16Zm32,0H296V264h16ZM200,328h16v16H200Zm32,0h16v16H232Zm32,0h16v16H264Zm32,0h16v16H296ZM184,64H168V48h16Zm0,56H168V80h16Z"/></svg>