<svg id="Outline" xmlns="http://www.w3.org/2000/svg" viewBox="0 0 512 512"><title>bin-trash-can-delete-symbol</title><path d="M440,64H320V32a16.019,16.019,0,0,0-16-16H208a16.019,16.019,0,0,0-16,16V64H72a8,8,0,0,0-8,8v48a8,8,0,0,0,8,8H88.666l4.644,53.408,15.94-1.386L104.726,128H407.274l-2.087,24H128v16H403.8L385.239,381.412l15.939,1.386L423.334,128H440a8,8,0,0,0,8-8V72A8,8,0,0,0,440,64ZM208,32h96V64H208Zm224,80H80V80H432ZM383.741,398.63l15.94,1.386-7.711,88.677A8,8,0,0,1,384,496H128a8,8,0,0,1-7.97-7.307L94.8,198.539l15.94-1.386L135.334,480H376.666l2.086-24H152V440H380.144ZM264,184V424H248V184ZM216,423.733,200,424.267l-8-240L208,183.733Zm-63.978.8-16-240,15.964-1.064,16,240Zm223.964-240-16,240-15.964-1.064,16-240ZM320,184.267l-8,240L296,423.733l8-240Z"/></svg>