<svg id="Outline" xmlns="http://www.w3.org/2000/svg" viewBox="0 0 512 512"><title>vpn-network-virtual private-connection-internet</title><path d="M455.772,304H456v-.282q1.126-1.371,2.23-2.762A176.077,176.077,0,0,0,469.941,99.8,175.895,175.895,0,0,0,320,16c-3.131,0-6.253,0-9.376.245l-.08.007A175.89,175.89,0,0,0,144.2,184H144v16h.184c.131,2.93.33,5.854.6,8.752l15.93-1.5c-.227-2.4-.4-4.821-.516-7.248h55.9c.07,2.819.175,5.631.32,8.415l15.978-.83c-.13-2.509-.226-5.044-.294-7.585H312v16h16V200h71.881c-.858,31.72-6.789,62.5-16.977,88H352v16h23.606c-8.121,15.615-17.854,28.048-28.515,36.334l6.424,24.478A175.947,175.947,0,0,0,455.772,304Zm24.006-120H415.886a289.929,289.929,0,0,0-10.645-72h53.333A159.4,159.4,0,0,1,479.778,184ZM448,96H400.03c-8.843-24.168-20.784-43.719-34.66-57.442A158.884,158.884,0,0,1,399.2,52.947,161.133,161.133,0,0,1,448,96ZM311.828,32.2l.026,0L312,32.2V96H249.1C264.169,58.181,287.153,34.591,311.828,32.2ZM328,33.7c21.663,6.084,41.421,28.458,54.9,62.3H328ZM262.828,42.56C250.561,55.992,239.981,74.11,231.97,96H191.989A160.192,160.192,0,0,1,262.828,42.56ZM181.426,112h45.333a289.957,289.957,0,0,0-10.645,72H160.222A159.411,159.411,0,0,1,181.426,112Zm50.693,72c.675-25.389,4.547-50.022,11.338-72H312v72ZM328,112h60.543c6.791,21.975,10.663,46.609,11.338,72H328ZM415.9,200h63.9a158,158,0,0,1-31.789,88H400.043C409.693,261.735,415.114,231.685,415.9,200ZM365.421,345.453c10.685-10.6,20.212-24.688,28-41.453h40.833A159.983,159.983,0,0,1,365.421,345.453ZM197.124,44.462,186.876,32.175c5.312-4.43,10.909-8.643,16.639-12.522l8.97,13.248C207.2,36.483,202.027,40.373,197.124,44.462ZM129.368,168.95l-15.887-1.9A208.274,208.274,0,0,1,175.652,42.239l11.106,11.52A192.215,192.215,0,0,0,129.368,168.95ZM381.441,373.961l5.118,15.16c-5.456,1.842-11.056,3.474-16.646,4.85l-3.826-15.535C371.242,377.165,376.408,375.66,381.441,373.961Zm99.844-77.749,13.43,8.7a207.768,207.768,0,0,1-93.059,78.448l-6.287-14.712A191.838,191.838,0,0,0,481.285,296.212ZM48,272H32V256a32.036,32.036,0,0,1,32-32H304a32.015,32.015,0,0,1,32,32V424H320V256a16.015,16.015,0,0,0-16-16H64a16.019,16.019,0,0,0-16,16ZM344,440H216a8,8,0,0,0-5.655,2.343L204.687,448H163.313l-5.654-5.656A8,8,0,0,0,152,440H48V288H32V440H24a8,8,0,0,0-8,8v16a32,32,0,0,0,32,32H320a32,32,0,0,0,32-32V448A8,8,0,0,0,344,440Zm-8,24a16,16,0,0,1-16,16H48a16,16,0,0,1-16-16v-8H148.687l5.656,5.657A8,8,0,0,0,160,464h48a8,8,0,0,0,5.659-2.344L219.313,456H336ZM249.809,274.935l-16.242,19.85A88.586,88.586,0,0,1,195.2,278.4l-6.4-4.8a8,8,0,0,0-9.6,0l-6.4,4.8A88.551,88.551,0,0,1,120,296a8,8,0,0,0-8,8v27.648a106.629,106.629,0,0,0,69.191,99.842,7.991,7.991,0,0,0,5.618,0A106.629,106.629,0,0,0,256,331.648V304a7.988,7.988,0,0,0-3.758-6.774l9.949-12.161ZM240,331.648A91.079,91.079,0,0,1,184,415.4a91.079,91.079,0,0,1-56-83.753V311.686A104.75,104.75,0,0,0,182.4,291.2L184,290l1.6,1.2a104.439,104.439,0,0,0,36.576,17.5l-38.951,47.607-17.506-16.4-10.94,11.676,23.75,22.25A8,8,0,0,0,184,376c.176,0,.353-.006.528-.018a8,8,0,0,0,5.663-2.917L240,312.188ZM64,256H80v16H64Zm48,16H96V256h16Zm32-16v16H128V256Z"/></svg>