<svg xmlns="http://www.w3.org/2000/svg" viewBox="0 0 50 50"><defs><style>.cls-1{fill:#232f3e;}</style></defs><title>Amazon-CloudSearch_Search-documents_dark-bg</title><g id="Working"><polygon class="cls-1" points="41.94 11.88 39.94 11.88 39.94 3.5 10.06 3.5 10.06 11.88 8.06 11.88 8.06 1.5 41.94 1.5 41.94 11.88"/><polygon class="cls-1" points="41.94 48.5 8.06 48.5 8.06 22.19 10.06 22.19 10.06 46.5 39.94 46.5 39.94 22.19 41.94 22.19 41.94 48.5"/><path class="cls-1" d="M5.31,22.25a.87.87,0,0,1-.44-.11,1,1,0,0,1-.56-.89V12.81a1,1,0,0,1,1.6-.8l5.63,4.22a1,1,0,0,1,.4.8,1,1,0,0,1-.4.8L5.91,22.05A1,1,0,0,1,5.31,22.25Zm1-7.44v4.44l3-2.22Z"/><path class="cls-1" d="M44.69,22.25a1,1,0,0,1-.6-.2l-5.63-4.22a1,1,0,0,1-.4-.8,1,1,0,0,1,.4-.8L44.09,12a1,1,0,0,1,1.6.8v8.44a1,1,0,0,1-.56.89A.87.87,0,0,1,44.69,22.25Zm-4-5.22,3,2.22V14.81Z"/></g></svg>